<?xml version="1.0" encoding="UTF-8"?>
<svg xmlns="http://www.w3.org/2000/svg" xmlns:xlink="http://www.w3.org/1999/xlink" width="25pt" height="25pt" viewBox="0 0 25 25" version="1.1">
<g id="surface1">
<path style=" stroke:none;fill-rule:nonzero;fill:rgb(21.568627%,28.627451%,34.117647%);fill-opacity:1;" d="M 10 7.082031 L 5.832031 7.082031 L 5.832031 8.332031 C 5.832031 9.5 6.75 10.417969 7.917969 10.417969 C 9.082031 10.417969 10 9.5 10 8.332031 Z M 10 7.082031 "/>
<path style=" stroke:none;fill-rule:nonzero;fill:rgb(21.568627%,28.627451%,34.117647%);fill-opacity:1;" d="M 5 8.292969 L 5 7.082031 L 3.792969 7.082031 C 3.957031 7.667969 4.417969 8.125 5 8.292969 Z M 5 8.292969 "/>
<path style=" stroke:none;fill-rule:nonzero;fill:rgb(21.568627%,28.627451%,34.117647%);fill-opacity:1;" d="M 15 17.917969 C 15.25 17.917969 15.417969 17.75 15.417969 17.5 L 15.417969 16.25 L 15.832031 16.25 C 16.082031 16.25 16.25 16.082031 16.25 15.832031 L 16.25 14.582031 L 24.582031 14.582031 C 24.832031 14.582031 25 14.417969 25 14.167969 L 25 1.667969 C 25 1.417969 24.832031 1.25 24.582031 1.25 L 22.917969 1.25 L 22.917969 0.417969 C 22.917969 0.167969 22.75 0 22.5 0 L 19.167969 0 C 18.917969 0 18.75 0.167969 18.75 0.417969 L 18.75 1.25 L 14.582031 1.25 L 14.582031 0.417969 C 14.582031 0.167969 14.417969 0 14.167969 0 L 10.832031 0 C 10.582031 0 10.417969 0.167969 10.417969 0.417969 L 10.417969 1.25 L 6.25 1.25 L 6.25 0.417969 C 6.25 0.167969 6.082031 0 5.832031 0 L 2.5 0 C 2.25 0 2.082031 0.167969 2.082031 0.417969 L 2.082031 1.25 L 0.417969 1.25 C 0.167969 1.25 0 1.417969 0 1.667969 L 0 14.167969 C 0 14.417969 0.167969 14.582031 0.417969 14.582031 L 8.75 14.582031 L 8.75 15.832031 C 8.75 16.082031 8.917969 16.25 9.167969 16.25 L 9.582031 16.25 L 9.582031 17.5 C 9.582031 17.75 9.75 17.917969 10 17.917969 L 11.25 17.917969 L 11.25 24.167969 L 0.417969 24.167969 C 0.167969 24.167969 0 24.332031 0 24.582031 C 0 24.832031 0.167969 25 0.417969 25 L 24.582031 25 C 24.832031 25 25 24.832031 25 24.582031 C 25 24.332031 24.832031 24.167969 24.582031 24.167969 L 13.75 24.167969 L 13.75 17.917969 Z M 20.832031 11.25 L 15 11.25 C 14.75 11.25 14.582031 11.082031 14.582031 10.832031 C 14.582031 10.582031 14.75 10.417969 15 10.417969 L 20.832031 10.417969 C 21.082031 10.417969 21.25 10.582031 21.25 10.832031 C 21.25 11.082031 21.082031 11.25 20.832031 11.25 Z M 19.582031 1.667969 L 19.582031 0.832031 L 22.082031 0.832031 L 22.082031 2.5 L 19.582031 2.5 Z M 15 6.25 L 20.832031 6.25 C 21.082031 6.25 21.25 6.417969 21.25 6.667969 C 21.25 6.917969 21.082031 7.082031 20.832031 7.082031 L 15 7.082031 C 14.75 7.082031 14.582031 6.917969 14.582031 6.667969 C 14.582031 6.417969 14.75 6.25 15 6.25 Z M 14.167969 8.332031 L 21.667969 8.332031 C 21.917969 8.332031 22.082031 8.5 22.082031 8.75 C 22.082031 9 21.917969 9.167969 21.667969 9.167969 L 14.167969 9.167969 C 13.917969 9.167969 13.75 9 13.75 8.75 C 13.75 8.5 13.917969 8.332031 14.167969 8.332031 Z M 11.25 1.667969 L 11.25 0.832031 L 13.75 0.832031 L 13.75 2.5 L 11.25 2.5 Z M 2.917969 1.667969 L 2.917969 0.832031 L 5.417969 0.832031 L 5.417969 2.5 L 2.917969 2.5 Z M 5.417969 11.25 C 5.167969 11.25 5 11.082031 5 10.832031 C 5 10.582031 5.167969 10.417969 5.417969 10.417969 L 5.875 10.417969 C 5.5 10.082031 5.25 9.625 5.125 9.167969 C 3.875 9 2.917969 7.957031 2.917969 6.667969 C 2.917969 6.417969 3.082031 6.25 3.332031 6.25 L 10.417969 6.25 C 10.667969 6.25 10.832031 6.417969 10.832031 6.667969 L 10.832031 8.332031 C 10.832031 9.167969 10.5 9.875 9.957031 10.417969 L 10.417969 10.417969 C 10.667969 10.417969 10.832031 10.582031 10.832031 10.832031 C 10.832031 11.082031 10.667969 11.25 10.417969 11.25 Z M 12.917969 24.167969 L 12.082031 24.167969 L 12.082031 17.917969 L 12.917969 17.917969 Z M 10 15.417969 L 9.582031 15.417969 L 9.582031 14.582031 L 15.417969 14.582031 L 15.417969 15.417969 Z M 10 15.417969 "/>
</g>
</svg>
