<?xml version="1.0" encoding="UTF-8"?>
<svg xmlns="http://www.w3.org/2000/svg" xmlns:xlink="http://www.w3.org/1999/xlink" width="25pt" height="25pt" viewBox="0 0 25 25" version="1.1">
<g id="surface1">
<path style=" stroke:none;fill-rule:nonzero;fill:rgb(21.568627%,28.627451%,34.117647%);fill-opacity:1;" d="M 20.21875 21.148438 L 20.21875 20.460938 L 19.285156 20.804688 L 20.035156 21.234375 Z M 20.21875 21.148438 "/>
<path style=" stroke:none;fill-rule:nonzero;fill:rgb(21.568627%,28.627451%,34.117647%);fill-opacity:1;" d="M 6.617188 17.980469 L 9.574219 19.78125 L 9.574219 18.195312 L 6.617188 16.390625 Z M 6.617188 17.980469 "/>
<path style=" stroke:none;fill-rule:nonzero;fill:rgb(21.568627%,28.627451%,34.117647%);fill-opacity:1;" d="M 19.441406 18.078125 L 20.121094 17.839844 L 20.121094 16.253906 L 19.441406 16.492188 Z M 19.441406 18.078125 "/>
<path style=" stroke:none;fill-rule:nonzero;fill:rgb(21.568627%,28.627451%,34.117647%);fill-opacity:1;" d="M 14.152344 19.878906 L 18.867188 18.246094 L 18.867188 16.660156 L 14.152344 18.292969 Z M 14.152344 19.878906 "/>
<path style=" stroke:none;fill-rule:nonzero;fill:rgb(21.568627%,28.627451%,34.117647%);fill-opacity:1;" d="M 6.128906 16.09375 L 4.457031 15.078125 L 4.457031 16.664062 L 6.128906 17.679688 Z M 6.128906 16.09375 "/>
<path style=" stroke:none;fill-rule:nonzero;fill:rgb(21.568627%,28.627451%,34.117647%);fill-opacity:1;" d="M 10.0625 18.492188 L 10.0625 20.078125 L 11.339844 20.855469 L 13.664062 20.050781 L 13.664062 18.464844 L 11.339844 19.269531 Z M 10.0625 18.492188 "/>
<path style=" stroke:none;fill-rule:nonzero;fill:rgb(21.568627%,28.627451%,34.117647%);fill-opacity:1;" d="M 9.574219 16.082031 L 6.617188 14.28125 L 6.617188 15.867188 L 9.574219 17.667969 Z M 9.574219 16.082031 "/>
<path style=" stroke:none;fill-rule:nonzero;fill:rgb(21.568627%,28.627451%,34.117647%);fill-opacity:1;" d="M 19.441406 15.964844 L 20.121094 15.730469 L 20.121094 14.144531 L 19.441406 14.378906 Z M 19.441406 15.964844 "/>
<path style=" stroke:none;fill-rule:nonzero;fill:rgb(21.568627%,28.627451%,34.117647%);fill-opacity:1;" d="M 14.152344 17.769531 L 18.867188 16.132812 L 18.867188 14.546875 L 14.152344 16.183594 Z M 14.152344 17.769531 "/>
<path style=" stroke:none;fill-rule:nonzero;fill:rgb(21.568627%,28.627451%,34.117647%);fill-opacity:1;" d="M 6.128906 13.984375 L 4.457031 12.964844 L 4.457031 14.554688 L 6.128906 15.570312 Z M 6.128906 13.984375 "/>
<path style=" stroke:none;fill-rule:nonzero;fill:rgb(21.568627%,28.627451%,34.117647%);fill-opacity:1;" d="M 13.664062 16.351562 L 11.339844 17.15625 L 10.0625 16.378906 L 10.0625 17.964844 L 11.339844 18.742188 L 13.664062 17.9375 Z M 13.664062 16.351562 "/>
<path style=" stroke:none;fill-rule:nonzero;fill:rgb(21.568627%,28.627451%,34.117647%);fill-opacity:1;" d="M 9.574219 13.894531 L 6.617188 12.09375 L 6.617188 13.683594 L 9.574219 15.484375 Z M 9.574219 13.894531 "/>
<path style=" stroke:none;fill-rule:nonzero;fill:rgb(21.568627%,28.627451%,34.117647%);fill-opacity:1;" d="M 19.441406 13.78125 L 20.121094 13.542969 L 20.121094 11.957031 L 19.441406 12.191406 Z M 19.441406 13.78125 "/>
<path style=" stroke:none;fill-rule:nonzero;fill:rgb(21.568627%,28.627451%,34.117647%);fill-opacity:1;" d="M 14.152344 15.582031 L 18.867188 13.949219 L 18.867188 12.363281 L 14.152344 13.996094 Z M 14.152344 15.582031 "/>
<path style=" stroke:none;fill-rule:nonzero;fill:rgb(21.568627%,28.627451%,34.117647%);fill-opacity:1;" d="M 6.128906 11.796875 L 4.457031 10.78125 L 4.457031 12.367188 L 6.128906 13.382812 Z M 6.128906 11.796875 "/>
<path style=" stroke:none;fill-rule:nonzero;fill:rgb(21.568627%,28.627451%,34.117647%);fill-opacity:1;" d="M 13.664062 14.164062 L 11.339844 14.96875 L 10.0625 14.191406 L 10.0625 15.78125 L 11.339844 16.558594 L 13.664062 15.753906 Z M 13.664062 14.164062 "/>
<path style=" stroke:none;fill-rule:nonzero;fill:rgb(21.568627%,28.627451%,34.117647%);fill-opacity:1;" d="M 9.574219 11.730469 L 6.617188 9.929688 L 6.617188 11.519531 L 9.574219 13.320312 Z M 9.574219 11.730469 "/>
<path style=" stroke:none;fill-rule:nonzero;fill:rgb(21.568627%,28.627451%,34.117647%);fill-opacity:1;" d="M 19.441406 11.617188 L 20.121094 11.378906 L 20.121094 9.792969 L 19.441406 10.03125 Z M 19.441406 11.617188 "/>
<path style=" stroke:none;fill-rule:nonzero;fill:rgb(21.568627%,28.627451%,34.117647%);fill-opacity:1;" d="M 14.152344 13.417969 L 18.867188 11.785156 L 18.867188 10.199219 L 14.152344 11.832031 Z M 14.152344 13.417969 "/>
<path style=" stroke:none;fill-rule:nonzero;fill:rgb(21.568627%,28.627451%,34.117647%);fill-opacity:1;" d="M 6.128906 9.632812 L 4.457031 8.617188 L 4.457031 10.203125 L 6.128906 11.21875 Z M 6.128906 9.632812 "/>
<path style=" stroke:none;fill-rule:nonzero;fill:rgb(21.568627%,28.627451%,34.117647%);fill-opacity:1;" d="M 13.664062 12.003906 L 11.339844 12.808594 L 10.0625 12.03125 L 10.0625 13.617188 L 11.339844 14.394531 L 13.664062 13.589844 Z M 13.664062 12.003906 "/>
<path style=" stroke:none;fill-rule:nonzero;fill:rgb(21.568627%,28.627451%,34.117647%);fill-opacity:1;" d="M 9.574219 9.546875 L 6.617188 7.746094 L 6.617188 9.332031 L 9.574219 11.132812 Z M 9.574219 9.546875 "/>
<path style=" stroke:none;fill-rule:nonzero;fill:rgb(21.568627%,28.627451%,34.117647%);fill-opacity:1;" d="M 19.441406 9.429688 L 20.121094 9.195312 L 20.121094 7.605469 L 19.441406 7.84375 Z M 19.441406 9.429688 "/>
<path style=" stroke:none;fill-rule:nonzero;fill:rgb(21.568627%,28.627451%,34.117647%);fill-opacity:1;" d="M 14.152344 11.234375 L 18.867188 9.597656 L 18.867188 8.011719 L 14.152344 9.644531 Z M 14.152344 11.234375 "/>
<path style=" stroke:none;fill-rule:nonzero;fill:rgb(21.568627%,28.627451%,34.117647%);fill-opacity:1;" d="M 6.128906 7.445312 L 4.457031 6.429688 L 4.457031 8.015625 L 6.128906 9.035156 Z M 6.128906 7.445312 "/>
<path style=" stroke:none;fill-rule:nonzero;fill:rgb(21.568627%,28.627451%,34.117647%);fill-opacity:1;" d="M 13.664062 9.816406 L 11.339844 10.621094 L 10.0625 9.84375 L 10.0625 11.429688 L 11.339844 12.207031 L 13.664062 11.402344 Z M 13.664062 9.816406 "/>
<path style=" stroke:none;fill-rule:nonzero;fill:rgb(21.568627%,28.627451%,34.117647%);fill-opacity:1;" d="M 9.574219 7.152344 L 6.617188 5.351562 L 6.617188 6.941406 L 9.574219 8.742188 Z M 9.574219 7.152344 "/>
<path style=" stroke:none;fill-rule:nonzero;fill:rgb(21.568627%,28.627451%,34.117647%);fill-opacity:1;" d="M 20.121094 5.214844 L 19.441406 5.449219 L 19.441406 7.039062 L 20.121094 6.800781 Z M 20.121094 5.214844 "/>
<path style=" stroke:none;fill-rule:nonzero;fill:rgb(21.568627%,28.627451%,34.117647%);fill-opacity:1;" d="M 14.152344 8.839844 L 18.867188 7.207031 L 18.867188 5.621094 L 14.152344 7.253906 Z M 14.152344 8.839844 "/>
<path style=" stroke:none;fill-rule:nonzero;fill:rgb(21.568627%,28.627451%,34.117647%);fill-opacity:1;" d="M 6.128906 5.054688 L 4.457031 4.039062 L 4.457031 5.625 L 6.128906 6.640625 Z M 6.128906 5.054688 "/>
<path style=" stroke:none;fill-rule:nonzero;fill:rgb(21.568627%,28.627451%,34.117647%);fill-opacity:1;" d="M 13.664062 7.421875 L 11.339844 8.230469 L 10.0625 7.453125 L 10.0625 9.039062 L 11.339844 9.816406 L 13.664062 9.011719 Z M 13.664062 7.421875 "/>
<path style=" stroke:none;fill-rule:nonzero;fill:rgb(21.568627%,28.627451%,34.117647%);fill-opacity:1;" d="M 20.15625 4.382812 L 20.15625 3.53125 C 20.15625 3.125 19.839844 2.710938 19.449219 2.605469 L 13.28125 0.0859375 C 13.054688 -0.0078125 12.808594 -0.0234375 12.574219 0.0351562 L 5.183594 1.886719 C 4.78125 1.941406 4.457031 2.3125 4.457031 2.71875 L 4.457031 3.425781 L 11.347656 7.421875 Z M 10.976562 5.15625 L 5.910156 2.515625 C 5.859375 2.488281 5.832031 2.433594 5.835938 2.378906 C 5.84375 2.324219 5.882812 2.277344 5.9375 2.265625 L 12.476562 0.574219 C 12.703125 0.515625 12.9375 0.53125 13.148438 0.621094 L 18.277344 2.78125 C 18.328125 2.804688 18.363281 2.855469 18.359375 2.910156 C 18.359375 2.96875 18.320312 3.015625 18.269531 3.035156 L 11.695312 5.210938 C 11.457031 5.292969 11.199219 5.269531 10.976562 5.15625 Z M 10.976562 5.15625 "/>
<path style=" stroke:none;fill-rule:nonzero;fill:rgb(21.568627%,28.627451%,34.117647%);fill-opacity:1;" d="M 13.453125 20.429688 L 11.339844 21.234375 L 4.511719 17.136719 L 4.511719 21.003906 C 4.570312 21.0625 10.734375 24.777344 10.734375 24.777344 C 11.0625 25.011719 11.628906 25.070312 12 24.90625 L 14.996094 23.761719 L 15.058594 22.242188 L 13.445312 21.164062 Z M 5.871094 20.109375 L 5.414062 19.792969 L 5.414062 18.207031 L 5.871094 18.511719 Z M 7.65625 21.238281 L 7.199219 20.917969 L 7.199219 19.332031 L 7.65625 19.636719 Z M 9.773438 22.613281 L 9.316406 22.292969 L 9.316406 20.707031 L 9.773438 21.011719 Z M 12.742188 23.105469 L 12.074219 23.425781 L 12.074219 21.550781 L 12.742188 21.292969 Z M 12.742188 23.105469 "/>
<path style=" stroke:none;fill-rule:nonzero;fill:rgb(21.568627%,28.627451%,34.117647%);fill-opacity:1;" d="M 19.636719 20.363281 L 18.101562 18.742188 L 13.8125 20.257812 L 15.617188 22.078125 Z M 19.636719 20.363281 "/>
<path style=" stroke:none;fill-rule:nonzero;fill:rgb(21.568627%,28.627451%,34.117647%);fill-opacity:1;" d="M 13.726562 20.972656 L 15.453125 22.148438 L 13.726562 20.433594 Z M 13.726562 20.972656 "/>
<path style=" stroke:none;fill-rule:nonzero;fill:rgb(21.568627%,28.627451%,34.117647%);fill-opacity:1;" d="M 16.234375 23.398438 L 15.296875 22.765625 L 15.296875 23.4375 L 16.722656 24.453125 L 16.722656 24.167969 L 16.234375 23.792969 Z M 16.234375 23.398438 "/>
<path style=" stroke:none;fill-rule:nonzero;fill:rgb(21.568627%,28.627451%,34.117647%);fill-opacity:1;" d="M 20.039062 22.03125 L 20.039062 21.652344 L 18.886719 20.996094 L 15.296875 22.574219 L 16.410156 23.289062 L 16.410156 23.738281 L 16.898438 24.089844 L 16.898438 24.523438 L 20.542969 22.632812 L 20.542969 22.3125 Z M 20.039062 22.03125 "/>
<path style=" stroke:none;fill-rule:nonzero;fill:rgb(21.568627%,28.627451%,34.117647%);fill-opacity:1;" d="M 18.867188 18.550781 L 18.527344 18.667969 L 20.15625 20.253906 L 20.15625 18.148438 L 19.351562 18.382812 Z M 18.867188 18.550781 "/>
</g>
</svg>
