<?xml version="1.0" encoding="UTF-8"?>
<svg xmlns="http://www.w3.org/2000/svg" xmlns:xlink="http://www.w3.org/1999/xlink" width="25pt" height="25pt" viewBox="0 0 25 25" version="1.1">
<g id="surface1">
<path style=" stroke:none;fill-rule:nonzero;fill:rgb(21.568627%,28.627451%,34.117647%);fill-opacity:1;" d="M 21.699219 22.046875 C 21.699219 22.375 21.429688 22.640625 21.101562 22.640625 L 8.476562 22.640625 C 8.265625 23.007812 7.875 23.253906 7.425781 23.253906 C 6.972656 23.253906 6.582031 23.007812 6.371094 22.640625 L 3.898438 22.640625 C 3.570312 22.640625 3.300781 22.375 3.300781 22.046875 C 3.300781 21.714844 3.570312 21.449219 3.898438 21.449219 L 6.371094 21.449219 C 6.582031 21.082031 6.972656 20.835938 7.425781 20.835938 C 7.875 20.835938 8.265625 21.082031 8.476562 21.449219 L 21.101562 21.449219 C 21.429688 21.449219 21.699219 21.714844 21.699219 22.046875 Z M 23.855469 4.777344 C 23.855469 4.78125 23.855469 4.789062 23.855469 4.792969 C 23.855469 4.800781 23.855469 4.808594 23.855469 4.8125 L 23.855469 24.402344 C 23.855469 24.734375 23.589844 25 23.261719 25 L 1.738281 25 C 1.410156 25 1.144531 24.734375 1.144531 24.402344 L 1.144531 4.8125 C 1.144531 4.808594 1.144531 4.800781 1.144531 4.796875 C 1.144531 4.789062 1.144531 4.78125 1.144531 4.777344 L 1.144531 2.171875 C 1.144531 0.972656 2.117188 0 3.3125 0 L 21.6875 0 C 22.882812 0 23.855469 0.972656 23.855469 2.171875 Z M 22.664062 20.28125 L 2.335938 20.28125 L 2.335938 23.808594 L 22.664062 23.808594 Z M 10.261719 15.148438 C 10.351562 15.203125 10.457031 15.230469 10.558594 15.230469 C 10.660156 15.230469 10.765625 15.203125 10.855469 15.148438 L 15.453125 12.496094 C 15.636719 12.390625 15.75 12.191406 15.75 11.980469 C 15.75 11.765625 15.636719 11.570312 15.453125 11.464844 L 10.855469 8.808594 C 10.671875 8.703125 10.445312 8.703125 10.261719 8.808594 C 10.078125 8.917969 9.964844 9.113281 9.964844 9.324219 L 9.964844 14.632812 C 9.964844 14.847656 10.078125 15.042969 10.261719 15.148438 Z M 22.664062 2.171875 C 22.664062 1.628906 22.226562 1.191406 21.6875 1.191406 L 3.3125 1.191406 C 2.773438 1.191406 2.335938 1.628906 2.335938 2.171875 L 2.335938 4.179688 L 22.664062 4.179688 Z M 4.054688 1.9375 C 3.597656 1.9375 3.222656 2.3125 3.222656 2.773438 C 3.222656 3.230469 3.597656 3.605469 4.054688 3.605469 C 4.515625 3.605469 4.890625 3.230469 4.890625 2.773438 C 4.890625 2.3125 4.515625 1.9375 4.054688 1.9375 Z M 7.019531 1.9375 C 6.5625 1.9375 6.1875 2.3125 6.1875 2.773438 C 6.1875 3.230469 6.5625 3.605469 7.019531 3.605469 C 7.480469 3.605469 7.855469 3.230469 7.855469 2.773438 C 7.855469 2.3125 7.480469 1.9375 7.019531 1.9375 Z M 9.984375 1.9375 C 9.527344 1.9375 9.152344 2.3125 9.152344 2.773438 C 9.152344 3.230469 9.527344 3.605469 9.984375 3.605469 C 10.445312 3.605469 10.820312 3.230469 10.820312 2.773438 C 10.820312 2.3125 10.445312 1.9375 9.984375 1.9375 Z M 9.984375 1.9375 "/>
</g>
</svg>
