<?xml version="1.0" encoding="UTF-8"?>
<svg xmlns="http://www.w3.org/2000/svg" xmlns:xlink="http://www.w3.org/1999/xlink" width="25pt" height="25pt" viewBox="0 0 25 25" version="1.1">
<g id="surface1">
<path style=" stroke:none;fill-rule:nonzero;fill:rgb(21.568627%,28.627451%,34.117647%);fill-opacity:1;" d="M 4.089844 23.425781 C 3.875 23.425781 3.699219 23.601562 3.699219 23.816406 C 3.699219 24.03125 3.875 24.207031 4.089844 24.207031 L 20.496094 24.207031 C 20.710938 24.207031 20.886719 24.03125 20.886719 23.816406 C 20.886719 23.601562 20.710938 23.425781 20.496094 23.425781 L 17.496094 23.425781 C 17.972656 21.613281 19.285156 15.347656 16.429688 9.960938 C 16.183594 9.507812 15.914062 9.066406 15.617188 8.644531 C 15.828125 8.492188 16 8.289062 16.117188 8.058594 L 16.265625 7.757812 C 16.386719 7.515625 16.375 7.230469 16.230469 7 C 16.089844 6.769531 15.835938 6.628906 15.566406 6.628906 L 13.898438 6.628906 C 12.734375 5.535156 11.398438 4.640625 9.949219 3.976562 L 9.949219 1.160156 C 9.949219 0.945312 9.773438 0.769531 9.558594 0.769531 C 9.34375 0.769531 9.167969 0.945312 9.167969 1.160156 L 9.167969 3.636719 C 9.097656 3.605469 9.027344 3.574219 8.953125 3.546875 C 8.941406 3.539062 8.929688 3.542969 8.914062 3.535156 C 8.886719 3.523438 8.859375 3.519531 8.828125 3.511719 C 8.808594 3.511719 8.785156 3.507812 8.761719 3.507812 C 8.714844 3.515625 8.671875 3.523438 8.625 3.53125 C 8.617188 3.539062 8.609375 3.542969 8.597656 3.550781 C 8.589844 3.554688 8.582031 3.558594 8.570312 3.566406 C 8.535156 3.585938 8.507812 3.613281 8.480469 3.644531 C 8.476562 3.648438 8.472656 3.648438 8.46875 3.652344 C 8.464844 3.660156 8.46875 3.660156 8.464844 3.660156 C 8.433594 3.699219 8.414062 3.742188 8.398438 3.789062 L 8.398438 3.800781 C 8.390625 3.832031 8.386719 3.863281 8.386719 3.894531 L 8.386719 8.132812 L 6.980469 7.929688 C 6.570312 7.871094 6.15625 8.035156 5.898438 8.363281 C 5.644531 8.691406 5.582031 9.128906 5.734375 9.515625 C 5.890625 9.902344 6.238281 10.175781 6.652344 10.234375 L 8.386719 10.484375 L 8.386719 23.425781 Z M 9.167969 4.921875 C 9.585938 5.507812 9.941406 6.136719 10.226562 6.800781 L 9.167969 7.222656 Z M 14.746094 10.535156 C 14.925781 11.046875 15.078125 11.570312 15.207031 12.097656 L 14.378906 12.097656 C 14.304688 11.566406 14.210938 11.046875 14.09375 10.535156 Z M 13.9375 23.425781 C 13.988281 23.140625 14.058594 22.746094 14.132812 22.253906 L 15.347656 22.253906 C 15.253906 22.773438 15.167969 23.175781 15.113281 23.425781 Z M 15.386719 12.878906 C 15.4375 13.136719 15.484375 13.398438 15.523438 13.660156 L 14.546875 13.660156 C 14.527344 13.398438 14.503906 13.140625 14.476562 12.878906 Z M 15.660156 19.910156 L 14.421875 19.910156 C 14.449219 19.65625 14.472656 19.398438 14.496094 19.128906 L 15.722656 19.128906 C 15.703125 19.375 15.683594 19.632812 15.65625 19.910156 Z M 15.46875 21.472656 L 14.242188 21.472656 C 14.277344 21.226562 14.308594 20.964844 14.339844 20.691406 L 15.574219 20.691406 C 15.539062 20.957031 15.503906 21.21875 15.46875 21.472656 Z M 15.761719 16.003906 C 15.773438 16.265625 15.78125 16.527344 15.785156 16.785156 L 14.617188 16.785156 C 14.625 16.527344 14.628906 16.265625 14.628906 16.003906 Z M 14.550781 18.347656 C 14.566406 18.089844 14.578125 17.832031 14.589844 17.566406 L 15.785156 17.566406 C 15.78125 17.828125 15.773438 18.085938 15.761719 18.347656 Z M 14.621094 15.222656 C 14.617188 14.960938 14.605469 14.703125 14.59375 14.441406 L 15.628906 14.441406 C 15.660156 14.703125 15.6875 14.964844 15.707031 15.222656 Z M 11.027344 6.628906 C 10.78125 6.042969 10.484375 5.476562 10.144531 4.941406 C 11.0625 5.40625 11.925781 5.972656 12.722656 6.628906 Z M 9.167969 8.582031 L 9.167969 8.066406 L 10.519531 7.523438 C 10.699219 7.992188 10.871094 8.515625 11.03125 9.105469 L 9.167969 9.933594 Z M 9.167969 10.789062 L 11.226562 9.871094 C 11.519531 11.175781 11.722656 12.496094 11.824219 13.828125 L 9.167969 15.011719 Z M 9.167969 15.867188 L 11.882812 14.65625 C 11.953125 15.800781 11.972656 17.054688 11.933594 18.4375 L 9.167969 19.695312 Z M 11.339844 7.410156 L 12.070312 7.410156 C 14.992188 12.238281 13.476562 21.601562 13.140625 23.425781 L 12.339844 23.425781 C 13.273438 15.335938 12.417969 10.355469 11.339844 7.410156 Z M 16.683594 23.425781 L 15.910156 23.425781 C 15.984375 23.082031 16.089844 22.574219 16.195312 21.921875 C 16.273438 21.421875 16.339844 20.890625 16.398438 20.339844 C 16.460938 19.742188 16.503906 19.238281 16.527344 18.761719 C 16.558594 18.238281 16.574219 17.703125 16.570312 17.175781 C 16.570312 16.660156 16.554688 16.125 16.523438 15.585938 C 16.484375 15.066406 16.433594 14.53125 16.367188 13.996094 C 16.296875 13.464844 16.199219 12.921875 16.085938 12.40625 C 15.949219 11.773438 15.777344 11.148438 15.566406 10.535156 L 15.84375 10.535156 C 18.503906 15.789062 17.054688 22.054688 16.683594 23.425781 Z M 15.40625 9.753906 L 13.898438 9.753906 C 13.777344 9.324219 13.636719 8.902344 13.472656 8.492188 C 13.78125 8.800781 14.199219 8.972656 14.636719 8.972656 C 14.71875 8.972656 14.800781 8.964844 14.882812 8.953125 C 15.070312 9.214844 15.242188 9.480469 15.40625 9.753906 Z M 15.566406 7.410156 L 15.417969 7.707031 C 15.269531 8.003906 14.96875 8.191406 14.636719 8.191406 C 14.304688 8.191406 14.003906 8.003906 13.855469 7.707031 L 13.707031 7.410156 Z M 6.761719 9.460938 C 6.574219 9.433594 6.433594 9.273438 6.433594 9.082031 C 6.433594 8.871094 6.601562 8.699219 6.8125 8.699219 C 6.832031 8.699219 6.851562 8.699219 6.871094 8.703125 L 8.386719 8.921875 L 8.386719 9.695312 Z M 9.167969 20.550781 L 11.894531 19.3125 C 11.835938 20.582031 11.722656 21.949219 11.550781 23.425781 L 9.167969 23.425781 Z M 9.167969 20.550781 "/>
</g>
</svg>
