<?xml version="1.0" encoding="UTF-8"?>
<svg xmlns="http://www.w3.org/2000/svg" xmlns:xlink="http://www.w3.org/1999/xlink" width="25pt" height="25pt" viewBox="0 0 25 25" version="1.1">
<g id="surface1">
<path style=" stroke:none;fill-rule:nonzero;fill:rgb(89.019608%,91.372549%,92.941176%);fill-opacity:1;" d="M 12.539062 16.507812 L 20.40625 16.507812 L 20.40625 20.40625 L 12.539062 20.40625 Z M 12.539062 16.507812 "/>
<path style=" stroke:none;fill-rule:nonzero;fill:rgb(89.019608%,91.372549%,92.941176%);fill-opacity:1;" d="M 8.566406 12.539062 L 16.433594 12.539062 L 16.433594 16.433594 L 8.566406 16.433594 Z M 8.566406 12.539062 "/>
<path style=" stroke:none;fill-rule:nonzero;fill:rgb(89.019608%,91.372549%,92.941176%);fill-opacity:1;" d="M 4.597656 16.507812 L 12.464844 16.507812 L 12.464844 20.40625 L 4.597656 20.40625 Z M 4.597656 16.507812 "/>
<path style=" stroke:none;fill-rule:nonzero;fill:rgb(89.019608%,91.372549%,92.941176%);fill-opacity:1;" d="M 0.625 20.480469 L 8.492188 20.480469 L 8.492188 24.375 L 0.625 24.375 Z M 0.625 20.480469 "/>
<path style=" stroke:none;fill-rule:nonzero;fill:rgb(89.019608%,91.372549%,92.941176%);fill-opacity:1;" d="M 16.507812 20.480469 L 24.375 20.480469 L 24.375 24.375 L 16.507812 24.375 Z M 16.507812 20.480469 "/>
<path style=" stroke:none;fill-rule:nonzero;fill:rgb(89.019608%,91.372549%,92.941176%);fill-opacity:1;" d="M 8.566406 20.480469 L 16.433594 20.480469 L 16.433594 24.375 L 8.566406 24.375 Z M 8.566406 20.480469 "/>
<path style=" stroke:none;fill-rule:nonzero;fill:rgb(34.901961%,34.901961%,34.901961%);fill-opacity:1;" d="M 8.101562 4.121094 L 17.292969 0.625 L 13.84375 9.867188 Z M 8.101562 4.121094 "/>
<path style=" stroke:none;fill-rule:nonzero;fill:rgb(34.901961%,34.901961%,34.901961%);fill-opacity:1;" d="M 0.367188 12.296875 L 4.347656 8.320312 L 6.113281 10.085938 L 2.136719 14.0625 Z M 0.367188 12.296875 "/>
<path style=" stroke:none;fill-rule:nonzero;fill:rgb(34.901961%,34.901961%,34.901961%);fill-opacity:1;" d="M 23.75 19.851562 L 21.015625 19.851562 C 21.015625 19.828125 21.03125 19.804688 21.03125 19.78125 L 21.03125 17.132812 C 21.03125 16.441406 20.46875 15.882812 19.78125 15.882812 L 17.042969 15.882812 C 17.046875 15.855469 17.058594 15.835938 17.058594 15.808594 L 17.058594 13.160156 C 17.058594 12.472656 16.5 11.910156 15.808594 11.910156 L 9.191406 11.910156 C 8.5 11.910156 7.941406 12.472656 7.941406 13.160156 L 7.941406 15.808594 C 7.941406 15.835938 7.953125 15.855469 7.957031 15.882812 L 5.222656 15.882812 C 4.53125 15.882812 3.972656 16.441406 3.972656 17.132812 L 3.972656 19.78125 C 3.972656 19.804688 3.984375 19.828125 3.984375 19.851562 L 1.25 19.851562 C 0.558594 19.851562 0 20.414062 0 21.101562 L 0 23.75 C 0 24.441406 0.558594 25 1.25 25 L 23.75 25 C 24.441406 25 25 24.441406 25 23.75 L 25 21.101562 C 25 20.414062 24.441406 19.851562 23.75 19.851562 Z M 19.78125 17.132812 L 19.78125 19.78125 L 13.160156 19.78125 L 13.160156 17.132812 Z M 9.191406 13.160156 L 15.808594 13.160156 L 15.808594 15.808594 L 9.191406 15.808594 Z M 5.222656 17.132812 L 11.839844 17.132812 L 11.839844 19.78125 L 5.222656 19.78125 Z M 7.867188 23.75 L 1.25 23.75 L 1.25 21.101562 L 7.867188 21.101562 Z M 15.808594 23.75 L 9.191406 23.75 L 9.191406 21.101562 L 15.808594 21.101562 Z M 23.75 23.75 L 17.132812 23.75 L 17.132812 21.101562 L 23.75 21.101562 Z M 23.75 23.75 "/>
<path style=" stroke:none;fill-rule:nonzero;fill:rgb(34.901961%,34.901961%,34.901961%);fill-opacity:1;" d="M 1.25 14.066406 C 1.738281 14.554688 2.53125 14.554688 3.019531 14.066406 L 6.113281 10.972656 C 6.601562 10.484375 6.601562 9.691406 6.113281 9.203125 L 6.773438 8.542969 L 9.558594 8.9375 C 9.753906 8.96875 9.949219 8.902344 10.089844 8.761719 L 10.972656 7.878906 L 12.742188 9.648438 C 13.035156 9.941406 13.460938 10.070312 13.871094 9.988281 C 14.117188 9.9375 14.335938 9.816406 14.507812 9.648438 C 14.625 9.53125 14.71875 9.394531 14.78125 9.238281 L 17.875 1.726562 C 18.066406 1.257812 17.960938 0.722656 17.601562 0.367188 C 17.246094 0.0078125 16.710938 -0.0976562 16.242188 0.09375 L 8.730469 3.1875 C 8.574219 3.25 8.4375 3.34375 8.320312 3.460938 C 8.148438 3.632812 8.027344 3.851562 7.980469 4.097656 C 7.898438 4.507812 8.027344 4.933594 8.320312 5.226562 L 10.089844 6.996094 L 9.425781 7.660156 L 6.640625 7.261719 C 6.449219 7.234375 6.25 7.296875 6.113281 7.4375 L 5.226562 8.320312 C 4.738281 7.832031 3.949219 7.832031 3.460938 8.320312 L 0.367188 11.414062 C -0.121094 11.902344 -0.121094 12.695312 0.367188 13.183594 Z M 9.207031 4.34375 L 16.71875 1.25 L 13.625 8.761719 L 11.855469 6.996094 L 13.183594 5.667969 C 13.425781 5.425781 13.425781 5.03125 13.183594 4.785156 C 12.9375 4.542969 12.542969 4.542969 12.296875 4.785156 L 10.972656 6.113281 Z M 4.34375 9.203125 L 5.226562 10.089844 L 2.132812 13.183594 L 1.25 12.296875 Z M 4.34375 9.203125 "/>
</g>
</svg>
